<svg width="50" height="50" viewBox="0 0 50 50" fill="none" xmlns="http://www.w3.org/2000/svg">
<path d="M17.9641 20.3125H3.91094C2.61406 20.3125 1.5625 19.2609 1.5625 17.9641V3.91094C1.5625 2.61406 2.61406 1.5625 3.91094 1.5625H17.9656C19.2609 1.5625 20.3125 2.61406 20.3125 3.91094V17.9656C20.3125 19.2609 19.2609 20.3125 17.9641 20.3125Z" stroke="white" stroke-width="2" stroke-miterlimit="10" stroke-linecap="round" stroke-linejoin="round"/>
<path d="M17.9641 48.4375H3.91094C2.61406 48.4375 1.5625 47.3859 1.5625 46.0891V32.0344C1.5625 30.7391 2.61406 29.6875 3.91094 29.6875H17.9656C19.2609 29.6875 20.3125 30.7391 20.3125 32.0359V46.0906C20.3125 47.3859 19.2609 48.4375 17.9641 48.4375Z" stroke="white" stroke-width="2" stroke-miterlimit="10" stroke-linecap="round" stroke-linejoin="round"/>
<path d="M26.5625 4.6875H48.4375" stroke="white" stroke-width="2" stroke-miterlimit="10" stroke-linecap="round" stroke-linejoin="round"/>
<path d="M26.5625 10.9375H48.4375" stroke="white" stroke-width="2" stroke-miterlimit="10" stroke-linecap="round" stroke-linejoin="round"/>
<path d="M26.5625 17.1875H42.1875" stroke="white" stroke-width="2" stroke-miterlimit="10" stroke-linecap="round" stroke-linejoin="round"/>
<path d="M26.5625 32.8125H48.4375" stroke="white" stroke-width="2" stroke-miterlimit="10" stroke-linecap="round" stroke-linejoin="round"/>
<path d="M26.5625 39.0625H48.4375" stroke="white" stroke-width="2" stroke-miterlimit="10" stroke-linecap="round" stroke-linejoin="round"/>
<path d="M26.5625 45.3125H35.9375" stroke="white" stroke-width="2" stroke-miterlimit="10" stroke-linecap="round" stroke-linejoin="round"/>
</svg>
